<?xml version="1.0" encoding="UTF-8" standalone="no"?>
<svg width="320px" height="320px" viewBox="0 0 320 320" version="1.1" xmlns="http://www.w3.org/2000/svg" xmlns:xlink="http://www.w3.org/1999/xlink">
    <!-- Generator: Sketch 3.8.3 (29802) - http://www.bohemiancoding.com/sketch -->
    <title>chilun</title>
    <desc>Created with Sketch.</desc>
    <defs>
        <radialGradient cx="50%" cy="50%" fx="50%" fy="50%" r="50%" id="radialGradient-1">
            <stop stop-color="#B1DAD9" offset="0%"></stop>
            <stop stop-color="#D9EFEE" stop-opacity="0" offset="100%"></stop>
        </radialGradient>
        <radialGradient cx="50%" cy="50%" fx="50%" fy="50%" r="41.8156137%" id="radialGradient-2">
            <stop stop-color="#B1DAD9" offset="0%"></stop>
            <stop stop-color="#EEEEEE" stop-opacity="0" offset="100%"></stop>
        </radialGradient>
        <path d="M6.13908924e-12,147.417434 C6.13908924e-12,228.71355 66.1238827,294.805044 147.408486,294.805044 C221.224677,294.805044 282.54426,240.284557 293.174633,169.370088 C294.248451,162.206719 294.805044,154.876069 294.805044,147.417434 C294.805044,66.1034234 228.681161,-3.06954462e-12 147.408486,-3.06954462e-12 C66.1238827,-3.06954462e-12 6.13908924e-12,66.1034234 6.13908924e-12,147.417434 Z" id="path-3"></path>
        <filter x="-50%" y="-50%" width="200%" height="200%" filterUnits="objectBoundingBox" id="filter-4">
            <feMorphology radius="1" operator="dilate" in="SourceAlpha" result="shadowSpreadOuter1"></feMorphology>
            <feOffset dx="0" dy="0" in="shadowSpreadOuter1" result="shadowOffsetOuter1"></feOffset>
            <feGaussianBlur stdDeviation="6" in="shadowOffsetOuter1" result="shadowBlurOuter1"></feGaussianBlur>
            <feComposite in="shadowBlurOuter1" in2="SourceAlpha" operator="out" result="shadowBlurOuter1"></feComposite>
            <feColorMatrix values="0 0 0 0 0.694117647   0 0 0 0 0.854901961   0 0 0 0 0.850980392  0 0 0 1 0" type="matrix" in="shadowBlurOuter1"></feColorMatrix>
        </filter>
        <filter x="-50%" y="-50%" width="200%" height="200%" filterUnits="objectBoundingBox" id="filter-5">
            <feGaussianBlur stdDeviation="10" in="SourceAlpha" result="shadowBlurInner1"></feGaussianBlur>
            <feOffset dx="0" dy="0" in="shadowBlurInner1" result="shadowOffsetInner1"></feOffset>
            <feComposite in="shadowOffsetInner1" in2="SourceAlpha" operator="arithmetic" k2="-1" k3="1" result="shadowInnerInner1"></feComposite>
            <feColorMatrix values="0 0 0 0 0.694117647   0 0 0 0 0.854901961   0 0 0 0 0.850980392  0 0 0 1 0" type="matrix" in="shadowInnerInner1"></feColorMatrix>
        </filter>
        <path d="M0.402521874,121.414763 C0.402521874,188.149239 54.6823924,242.402522 121.407418,242.402522 C182.001762,242.402522 232.337871,197.647664 241.064148,139.43529 C241.945625,133.555013 242.402522,127.537418 242.402522,121.414763 C242.402522,54.6655978 188.122651,0.402521874 121.407418,0.402521874 C54.6823924,0.402521874 0.402521874,54.6655978 0.402521874,121.414763 Z" id="path-6"></path>
        <filter x="-50%" y="-50%" width="200%" height="200%" filterUnits="objectBoundingBox" id="filter-7">
            <feMorphology radius="1" operator="dilate" in="SourceAlpha" result="shadowSpreadOuter1"></feMorphology>
            <feOffset dx="0" dy="0" in="shadowSpreadOuter1" result="shadowOffsetOuter1"></feOffset>
            <feMorphology radius="1" operator="erode" in="SourceAlpha" result="shadowInner"></feMorphology>
            <feOffset dx="0" dy="0" in="shadowInner" result="shadowInner"></feOffset>
            <feComposite in="shadowOffsetOuter1" in2="shadowInner" operator="out" result="shadowOffsetOuter1"></feComposite>
            <feGaussianBlur stdDeviation="5" in="shadowOffsetOuter1" result="shadowBlurOuter1"></feGaussianBlur>
            <feColorMatrix values="0 0 0 0 0.694117647   0 0 0 0 0.854901961   0 0 0 0 0.850980392  0 0 0 1 0" type="matrix" in="shadowBlurOuter1"></feColorMatrix>
        </filter>
        <filter x="-50%" y="-50%" width="200%" height="200%" filterUnits="objectBoundingBox" id="filter-8">
            <feGaussianBlur stdDeviation="4" in="SourceGraphic"></feGaussianBlur>
        </filter>
    </defs>
    <g id="Page-1" stroke="none" stroke-width="1" fill="none" fill-rule="evenodd">
        <g id="引擎计划web_首页1440" transform="translate(-560.000000, -540.000000)">
            <g id="chilun" transform="translate(720.168239, 700.168239) rotate(-60.000000) translate(-720.168239, -700.168239) translate(572.668239, 552.668239)">
                <g transform="translate(11.000000, 12.000000)">
                    <path d="M222.171198,176.368752 L215.528076,187.875835 L200.792019,183.461098 L199.995177,184.539887 C197.853662,187.471981 195.51017,190.265768 193.031103,192.843797 L192.15679,193.742788 L198.080541,207.866626 L187.314864,215.664335 L176.297407,206.190354 L175.138111,206.854224 C171.804099,208.779448 168.315146,210.466785 164.743188,211.888573 L163.581125,212.34775 L163.262942,226.831185 L150.258911,229.58348 L144.32686,217.019737 L142.993255,217.141446 C139.000741,217.53147 134.930757,217.633817 130.95761,217.440188 L129.701476,217.368269 L123.733457,229.995633 L110.732193,227.232273 L110.425077,213.700386 L109.177243,213.271636 C105.345205,211.971557 101.557435,210.339543 97.9024723,208.430916 L96.7653114,207.836199 L86.3454863,216.815043 L75.5825762,208.997972 L80.8256905,196.481253 L79.8711394,195.576729 C76.9410824,192.802305 74.1853347,189.773397 71.6869008,186.575756 L70.8928249,185.546757 L57.540176,189.565938 L50.8998202,178.050556 L61.0429638,168.507422 L60.5587711,167.306924 C59.0785252,163.636275 57.8583598,159.863279 56.9480777,156.05709 L56.6464948,154.804035 L42.3088598,152.961795 L40.9226855,139.750778 L54.7429261,134.910058 L54.8010293,133.63764 C54.969805,129.931032 55.3848272,126.174633 56.0626969,122.515048 L56.2978761,121.237098 L43.2855455,113.345341 L47.3997993,100.70138 L62.8275594,101.971032 L63.4113573,100.83692 C64.9829082,97.7360932 66.7868716,94.7099516 68.7485434,91.8442452 L69.4955834,90.7709884 L60.306991,77.526778 L69.2078346,67.6544749 L83.5814382,75.5241029 L84.5608907,74.7329909 C87.053791,72.7137191 89.7265342,70.8050922 92.4905823,69.0762636 L93.572407,68.3847322 L90.4293052,51.7437192 L102.567322,46.3359433 L112.931811,59.9508145 L114.163044,59.6327101 C117.134603,58.8305336 120.136597,58.2053892 123.110923,57.7600429 L124.386425,57.5719463 L128.428742,40.4302647 L141.726054,40.4302647 L145.765604,57.5719463 L147.038339,57.7600429 C149.913059,58.1887924 152.804381,58.7890417 155.643133,59.5358957 L156.854998,59.8484679 L167.750715,45.5448313 L179.885966,50.9526073 L176.590689,68.3957967 L177.683581,69.0928604 C180.148813,70.6280602 182.539341,72.3153969 184.797062,74.0995481 L185.776515,74.8768295 L201.577795,66.2133234 L210.475872,76.0883926 L200.473836,90.5192709 L201.223642,91.5952939 C202.922467,94.0433152 204.488484,96.6047477 205.885726,99.2187366 L206.477824,100.297526 L224.088601,98.8480758 L228.186254,111.489271 L213.660476,120.310446 L213.909489,121.618823 C214.518188,124.714118 214.947045,127.850905 215.190524,130.968329 L215.295663,132.196489 L231.368091,137.81449 L229.97085,151.039338 L213.86522,153.083505 L213.574704,154.383584 C212.858099,157.705701 211.917382,160.98356 210.796822,164.125879 L210.395634,165.284886 L222.171198,176.368752 Z M233.415534,154.400181 L235.438076,135.241993 L218.845487,129.441427 C218.624142,127.026599 218.294891,124.58411 217.849433,122.183113 L232.696162,113.160011 L226.74751,94.851024 L208.622106,96.3447319 C207.520913,94.3641858 206.325649,92.411301 205.066748,90.5331016 L215.273529,75.7841187 L202.380171,61.4694176 L186.150035,70.3680444 C184.406941,69.0513685 182.608512,67.7761845 180.771346,66.5867504 L184.141327,48.725876 L166.547151,40.8839093 L155.377519,55.563739 C153.224937,55.035409 151.03362,54.5789982 148.847836,54.2166357 L144.714214,36.6655674 L125.437815,36.6655674 L121.298659,54.2166357 C119.002203,54.6038933 116.694679,55.079667 114.412057,55.6605534 L103.765353,41.691618 L86.171177,49.516988 L89.3945164,66.5729197 C87.2447012,67.9587488 85.1723568,69.4496906 83.1857837,71.0153178 L68.4054583,62.9188675 L55.5121007,77.2252703 L64.9192715,90.7931174 C63.3670883,93.1194292 61.9311114,95.5397893 60.6224079,98.0016413 L44.7491906,96.6849654 L38.778404,115.016081 L52.1310528,123.109765 C51.6164253,126.127609 51.2733402,129.170347 51.1100981,132.196489 L36.8693017,137.172749 L38.8807761,156.322638 L53.5974648,158.20637 C54.4136752,161.34039 55.4124954,164.466112 56.5856249,167.514383 L46.1408985,177.361791 L55.7721813,194.033231 L69.5204847,189.906172 C71.6453986,192.539523 73.9224873,195.059464 76.3462172,197.418969 L70.9481612,210.298051 L86.5419302,221.60874 L97.2965399,212.358815 C100.367704,213.907845 103.521873,215.268779 106.714778,216.416721 L107.032962,230.288842 L125.863904,234.299725 L132.042202,221.257442 C135.345779,221.368087 138.704692,221.293401 142.041471,221.019555 L148.111863,233.901403 L166.95664,229.884988 L167.305258,214.906417 C170.224248,213.700386 173.090668,212.317323 175.857483,210.779357 L187.123954,220.469096 L202.714956,209.152875 L196.600295,194.556029 C198.581334,192.426112 200.473836,190.188316 202.244597,187.834343 L217.293304,192.359725 L226.93012,175.674454 L214.750601,164.219927 C215.61108,161.702753 216.352587,159.119191 216.966819,156.488606 L233.415534,154.400181 Z" id="Fill-1" fill="#B1DAD9" transform="translate(136.153689, 135.482646) rotate(-30.000000) translate(-136.153689, -135.482646) "></path>
                    <path d="M193.160778,165.928842 L158.155035,145.713994 C159.67955,142.549546 160.54833,139.022736 160.54833,135.2857 C160.54833,122.544924 150.679101,112.102799 138.189698,111.131889 L138.189698,70.74092 C172.946428,71.7394914 200.910626,100.288676 200.910626,135.2857 C200.910626,146.369566 198.099542,156.79786 193.160778,165.928842 M136.308264,199.871971 C113.119588,199.871971 92.7530636,187.587607 81.3454856,169.179039 L116.32356,148.994619 C120.708962,155.345644 128.032721,159.52526 136.308264,159.52526 C144.597642,159.52526 151.915867,155.345644 156.287435,148.983555 L191.262743,169.179039 C179.877299,187.587607 159.513541,199.871971 136.308264,199.871971 Z M134.424063,70.74092 L134.424063,111.131889 C121.931894,112.102799 112.068199,122.544924 112.068199,135.2857 C112.068199,139.022736 112.936979,142.549546 114.45596,145.713994 L79.4529842,165.928842 C74.5142195,156.79786 71.7003688,146.369566 71.7003688,135.2857 C71.7003688,100.288676 99.6701009,71.7394914 134.424063,70.74092 Z M136.308264,155.749499 C125.016893,155.749499 115.8283,146.563195 115.8283,135.2857 C115.8283,124.002673 125.016893,114.816369 136.308264,114.816369 C147.596869,114.816369 156.782695,124.002673 156.782695,135.2857 C156.782695,146.563195 147.596869,155.749499 136.308264,155.749499 Z M136.308264,66.9236664 C98.5993436,66.9236664 67.9236664,97.5778727 67.9236664,135.2857 C67.9236664,172.985229 98.5993436,203.633903 136.308264,203.633903 C174.011651,203.633903 204.687329,172.985229 204.687329,135.2857 C204.687329,97.5778727 174.011651,66.9236664 136.308264,66.9236664" id="Fill-4" fill="#B1DAD9" transform="translate(136.305498, 135.278784) rotate(-30.000000) translate(-136.305498, -135.278784) "></path>
                    <path d="M117.292144,135.404455 C117.292144,145.944299 125.864944,154.5129 136.403295,154.5129 C146.9401,154.5129 155.5129,145.944299 155.5129,135.404455 C155.5129,124.862292 146.9401,116.292144 136.403295,116.292144 C125.864944,116.292144 117.292144,124.862292 117.292144,135.404455 Z" id="Path" fill="url(#radialGradient-1)"></path>
                </g>
                <g id="round2">
                    <use fill="black" fill-opacity="1" filter="url(#filter-4)" xlink:href="#path-3"></use>
                    <use fill="url(#radialGradient-2)" fill-rule="evenodd" xlink:href="#path-3"></use>
                    <use fill="black" fill-opacity="1" filter="url(#filter-5)" xlink:href="#path-3"></use>
                    <use stroke="#B1DAD9" stroke-width="2" xlink:href="#path-3"></use>
                </g>
                <g id="round1" transform="translate(26.000000, 26.000000)">
                    <g id="Path">
                        <use fill="black" fill-opacity="1" filter="url(#filter-7)" xlink:href="#path-6"></use>
                        <use stroke="#B1DAD9" stroke-width="2" xlink:href="#path-6"></use>
                    </g>
                    <path d="M0.390031545,121.910408 C0.390031545,188.736863 54.5635768,242.910408 121.390032,242.910408 L121.390032,242.910408 M242.205771,121.232051 C242.205771,54.4055961 188.032226,0.232050808 121.205771,0.232050808" id="Combined-Shape" stroke="#B1DAD9" stroke-width="4" filter="url(#filter-8)"></path>
                    <path d="M0.390031545,121.910408 C0.390031545,188.736863 54.5635768,242.910408 121.390032,242.910408 L121.390032,242.910408 M242.205771,121.232051 C242.205771,54.4055961 188.032226,0.232050808 121.205771,0.232050808" id="Combined-Shape" stroke="#B1DAD9" stroke-width="4"></path>
                </g>
            </g>
        </g>
    </g>
</svg>